<svg width="14" height="14" viewBox="0 0 14 14" fill="none" xmlns="http://www.w3.org/2000/svg">
<path fill-rule="evenodd" clip-rule="evenodd" d="M13.2371 9.07618L13.9841 12.0647H13.9854C14.0269 12.2306 13.9783 12.4061 13.8573 12.5271C13.7363 12.648 13.5606 12.6966 13.3946 12.6551L10.5882 11.953C9.7132 12.4134 8.7416 12.6602 7.75284 12.6733C5.97686 14.4446 3.10019 14.4419 1.32762 12.6671C-0.444948 10.8924 -0.442185 8.01772 1.33379 6.24639C1.34841 3.96166 2.61343 1.86825 4.63004 0.791624C6.65524 -0.339123 9.14113 -0.253096 11.0832 1.01494C12.5169 1.92622 13.52 3.379 13.8636 5.04183C13.9147 5.3032 13.7462 5.55708 13.4853 5.61167C13.2245 5.66627 12.9682 5.50133 12.91 5.24145C12.6189 3.83389 11.7695 2.60426 10.5557 1.83324C8.91243 0.760885 6.80924 0.68898 5.09648 1.6466C3.64607 2.42047 2.64101 3.82734 2.37971 5.44951C4.15279 4.46459 6.36444 4.77367 7.7991 6.20689C9.23377 7.6401 9.54377 9.85012 8.55871 11.6223C9.16479 11.5184 9.74853 11.3114 10.2845 11.0101C10.393 10.9489 10.5209 10.9316 10.6418 10.9617L12.844 11.5135L12.2918 9.31248C12.2467 9.14273 12.2966 8.96184 12.4223 8.83912C12.548 8.71639 12.7302 8.67086 12.8989 8.71996C13.0677 8.76906 13.1969 8.90518 13.2371 9.07618ZM4.57905 5.85363C2.60574 5.85363 1.00605 7.4522 1.00605 9.42414C1.00838 11.3951 2.6067 12.9923 4.57905 12.9946C6.55236 12.9946 8.15204 11.3961 8.15204 9.42414C8.15204 7.4522 6.55236 5.85363 4.57905 5.85363Z" fill="#E00605"/>
<path d="M13.7256 6.73349C13.6996 6.71644 13.6725 6.70125 13.6444 6.68805C13.6119 6.67831 13.5827 6.66858 13.5534 6.66208C13.4902 6.6491 13.425 6.6491 13.3618 6.66208C13.3309 6.66876 13.3006 6.67743 13.2708 6.68805C13.2417 6.70125 13.2135 6.71643 13.1864 6.73349C13.1601 6.75226 13.1351 6.77287 13.1117 6.79517C13.0203 6.88639 12.9689 7.01015 12.9688 7.13923C12.9688 7.40813 13.1869 7.62612 13.456 7.62612C13.7251 7.62612 13.9432 7.40813 13.9432 7.13923C13.9423 6.97633 13.8609 6.8244 13.7256 6.73349Z" fill="#E00605"/>
<path d="M5.89039 8.26836L4.10032 10.0572L3.59133 9.54822C3.40016 9.3637 3.09627 9.36634 2.90833 9.55415C2.72039 9.74196 2.71775 10.0456 2.9024 10.2367L3.75602 11.09C3.94628 11.2801 4.25469 11.2801 4.44495 11.09L6.57933 8.95876C6.76967 8.76865 6.76974 8.46034 6.57949 8.27014C6.38925 8.07994 6.08073 8.07987 5.89039 8.26998V8.26836Z" fill="#E00605"/>
</svg>
