<svg width="22" height="22" viewBox="0 0 22 22" fill="none" xmlns="http://www.w3.org/2000/svg">
<mask id="mask0_1558_4039" style="mask-type:luminance" maskUnits="userSpaceOnUse" x="0" y="0" width="22" height="22">
<path fill-rule="evenodd" clip-rule="evenodd" d="M0 0H22V22H0V0Z" fill="white"/>
</mask>
<g mask="url(#mask0_1558_4039)">
<path fill-rule="evenodd" clip-rule="evenodd" d="M11 2.4248C6.27172 2.4248 2.42468 6.2719 2.42468 11.0001C2.42468 15.7282 6.27177 19.5753 11 19.5753C15.7281 19.5753 19.5752 15.7282 19.5752 11.0001C19.5752 6.2719 15.7281 2.4248 11 2.4248ZM11 3.60759C15.0908 3.60759 18.3925 6.90943 18.3925 11.0001C18.3925 15.0909 15.0906 18.3925 11 18.3925C6.90918 18.3925 3.60753 15.0907 3.60753 11.0001C3.60753 6.90943 6.90936 3.60759 11 3.60759ZM10.3758 6.00607C10.3758 5.66141 10.6551 5.38185 11 5.38185C11.3447 5.38185 11.6242 5.66118 11.6242 6.00607V10.3759H15.9941C16.3387 10.3759 16.6183 10.6552 16.6183 11.0001C16.6183 11.3448 16.3389 11.6243 15.9941 11.6243H11.6242V15.9942C11.6242 16.3388 11.3449 16.6184 11 16.6184C10.6553 16.6184 10.3758 16.3391 10.3758 15.9942V11.6243H6.00595C5.66129 11.6243 5.38172 11.345 5.38172 11.0001C5.38172 10.6555 5.66106 10.3759 6.00595 10.3759H10.3758V6.00607Z" fill="white"/>
</g>
</svg>
