<svg width="19" height="23" viewBox="0 0 19 23" fill="none" xmlns="http://www.w3.org/2000/svg">
<path d="M13.2773 0.615536C12.1431 0.955087 11.0348 1.6429 10.4806 2.34812C10.094 2.84003 9.84052 3.42772 9.68157 4.20259C9.60854 4.5552 9.5441 5.45632 9.58706 5.56515C9.60854 5.62174 9.65149 5.62174 9.94791 5.5695C10.4291 5.47809 11.1551 5.22995 11.6104 4.99923C12.9723 4.30707 13.6725 3.37113 13.8572 2.00421C13.9131 1.55583 13.9088 0.881083 13.84 0.598123C13.81 0.476233 13.7326 0.476233 13.2773 0.615536Z" fill="white"/>
<path d="M12.6236 5.94895C12.4002 5.99684 11.9277 6.15355 11.5711 6.30156C10.0718 6.91101 9.73243 6.98502 9.16537 6.83701C9.0236 6.79783 8.5983 6.64112 8.22026 6.4931C7.00451 6.00119 6.59209 5.91413 5.73291 5.95766C4.46131 6.02296 3.5162 6.46699 2.52384 7.46823C1.57443 8.42158 0.951522 9.62307 0.693766 10.9726C0.603551 11.4558 0.569183 12.901 0.637918 13.5453C0.938634 16.5882 2.30045 19.74 4.09615 21.5509C4.95105 22.4172 5.65988 22.7916 6.45463 22.7916C6.89281 22.7916 7.24937 22.7001 8.09138 22.378C9.17825 21.9601 9.5477 21.8643 10.1062 21.8643C10.6002 21.8687 10.9138 21.947 11.7945 22.2953C13.3926 22.9265 13.9467 22.9526 14.7329 22.439C15.0766 22.2126 15.8413 21.5814 16.1377 21.2766C16.6403 20.7586 17.2031 19.8662 17.7787 18.6778C18.1267 17.9638 18.5649 16.9234 18.5434 16.8668C18.5348 16.8494 18.3802 16.7536 18.1954 16.6579C16.9152 15.9744 16.0217 14.7294 15.6479 13.1056C15.532 12.6007 15.5405 11.6212 15.6651 11.1511C15.7811 10.7331 16.0732 10.0932 16.3439 9.68837C16.6102 9.28352 17.1343 8.72195 17.5596 8.3824C17.753 8.23004 17.9076 8.09074 17.9076 8.07333C17.9076 7.99932 17.0957 7.18527 16.7864 6.95019C15.8112 6.20144 14.9606 5.90977 13.6761 5.87495C13.1434 5.86189 12.963 5.87495 12.6236 5.94895Z" fill="white"/>
</svg>
