<svg width="14" height="14" viewBox="0 0 14 14" fill="none" xmlns="http://www.w3.org/2000/svg">
<path d="M13.8566 10.5617L10.731 7.43602C10.5403 7.24536 10.2312 7.24536 10.0405 7.43602L8.73818 8.73837C8.49429 8.97148 8.11018 8.97148 7.86629 8.73837L5.26166 6.13366C5.14599 6.01806 5.081 5.86123 5.081 5.6977C5.081 5.53416 5.14599 5.37733 5.26166 5.26174L6.56398 3.95938C6.75462 3.76867 6.75462 3.45952 6.56398 3.26881L3.43843 0.143155C3.34683 0.0514975 3.22257 0 3.09299 0C2.96341 0 2.83915 0.0514975 2.74755 0.143155L1.43222 1.45821C-0.477407 3.36799 -0.477407 6.46426 1.43222 8.37404L5.62566 12.5676C6.93747 13.8795 8.87865 14.336 10.6376 13.7463C10.8898 13.658 11.0242 13.3833 10.9392 13.13C10.8543 12.8766 10.5814 12.7386 10.327 12.8203C8.91921 13.2919 7.36577 12.9262 6.31621 11.8761L2.12277 7.68379C1.38858 6.94992 0.976092 5.95438 0.976092 4.91629C0.976092 3.8782 1.38858 2.88265 2.12277 2.14878L3.09267 1.17885L5.52766 3.61393L4.57079 4.57084C4.27183 4.86958 4.10386 5.27489 4.10386 5.69754C4.10386 6.12018 4.27183 6.5255 4.57079 6.82424L7.17541 9.42895C7.47414 9.72792 7.87944 9.8959 8.30207 9.8959C8.7247 9.8959 9.13 9.72792 9.42873 9.42895L10.3859 8.47204L13.166 11.2526C13.3568 11.4434 13.6661 11.4434 13.8569 11.2526C14.0477 11.0618 14.0477 10.7525 13.8569 10.5617H13.8566Z" fill="white"/>
</svg>
