<svg xmlns="http://www.w3.org/2000/svg" width="27.039" height="24.25" viewBox="0 0 27.039 24.25">
  <g id="noun_Camera_77833" transform="translate(0 0)">
    <path id="Path_23955" data-name="Path 23955" d="M23.163,11.47l-.285-1.11A4.259,4.259,0,0,0,18.923,7.4H13.145A4.362,4.362,0,0,0,9.16,10.36l-.285,1.11H6.485A3.9,3.9,0,0,0,2.5,15.256V27.807A3.932,3.932,0,0,0,6.485,31.65h19.1a3.925,3.925,0,0,0,3.956-3.842V15.256a3.915,3.915,0,0,0-3.956-3.785ZM16.019,28.092a7.146,7.146,0,1,1,0-14.288,7.273,7.273,0,0,1,7.372,7.144A7.273,7.273,0,0,1,16.019,28.092Zm4.839-7.144a4.84,4.84,0,1,0-4.839,4.725A4.775,4.775,0,0,0,20.858,20.948Z" transform="translate(-2.5 -7.4)" fill="#fff"/>
  </g>
</svg>
