<svg width="15" height="14" viewBox="0 0 15 14" fill="none" xmlns="http://www.w3.org/2000/svg">
<path fill-rule="evenodd" clip-rule="evenodd" d="M13.7371 9.07618L14.4841 12.0647H14.4854C14.5269 12.2306 14.4783 12.4061 14.3573 12.5271C14.2363 12.648 14.0606 12.6966 13.8946 12.6551L11.0882 11.953C10.2132 12.4134 9.2416 12.6602 8.25284 12.6733C6.47686 14.4446 3.60019 14.4419 1.82762 12.6671C0.0550517 10.8924 0.0578149 8.01772 1.83379 6.24639C1.84841 3.96166 3.11343 1.86825 5.13004 0.791624C7.15524 -0.339123 9.64113 -0.253096 11.5832 1.01494C13.0169 1.92622 14.02 3.379 14.3636 5.04183C14.4147 5.3032 14.2462 5.55708 13.9853 5.61167C13.7245 5.66627 13.4682 5.50133 13.41 5.24145C13.1189 3.83389 12.2695 2.60426 11.0557 1.83324C9.41243 0.760885 7.30924 0.68898 5.59648 1.6466C4.14607 2.42047 3.14101 3.82734 2.87971 5.44951C4.65279 4.46459 6.86444 4.77367 8.2991 6.20689C9.73377 7.6401 10.0438 9.85012 9.05871 11.6223C9.66479 11.5184 10.2485 11.3114 10.7845 11.0101C10.893 10.9489 11.0209 10.9316 11.1418 10.9617L13.344 11.5135L12.7918 9.31248C12.7467 9.14273 12.7966 8.96184 12.9223 8.83912C13.048 8.71639 13.2302 8.67086 13.3989 8.71996C13.5677 8.76906 13.6969 8.90518 13.7371 9.07618ZM5.07905 5.85363C3.10574 5.85363 1.50605 7.4522 1.50605 9.42414C1.50838 11.3951 3.1067 12.9923 5.07905 12.9946C7.05236 12.9946 8.65204 11.3961 8.65204 9.42414C8.65204 7.4522 7.05236 5.85363 5.07905 5.85363Z" fill="#E00605"/>
</svg>
