<svg width="16" height="16" viewBox="0 0 16 16" fill="none" xmlns="http://www.w3.org/2000/svg">
<g clip-path="url(#clip0_1033_11832)">
<path d="M15.4864 9.21689C15.414 9.15619 15.3259 9.11726 15.2322 9.10461C15.1385 9.09196 15.0432 9.10612 14.9573 9.14543C13.8024 9.67393 12.5212 9.86387 11.2626 9.69318C10.0041 9.5225 8.81975 8.9982 7.84731 8.1812C6.87487 7.3642 6.15422 6.28804 5.76908 5.07775C5.38394 3.86746 5.35013 2.57273 5.67157 1.34399C5.69544 1.25254 5.6929 1.1562 5.66425 1.06613C5.63561 0.976067 5.58202 0.895965 5.5097 0.835114C5.43738 0.774263 5.3493 0.735155 5.25566 0.722324C5.16202 0.709493 5.06667 0.723464 4.98064 0.762618C3.93911 1.23542 3.01761 1.93702 2.28471 2.8152C0.970148 4.38116 0.331321 6.4051 0.508701 8.44197C0.68608 10.4788 1.66514 12.3619 3.23061 13.677C4.79607 14.9922 6.81976 15.6318 8.8567 15.4552C10.8936 15.2786 12.777 14.3002 14.0928 12.7352C14.8315 11.8617 15.3636 10.8328 15.6496 9.72518C15.6732 9.6337 15.6704 9.53741 15.6415 9.44745C15.6126 9.35749 15.5589 9.27755 15.4864 9.21689ZM13.3272 12.0921C12.7069 12.8284 11.9353 13.4227 11.065 13.8344C10.1946 14.2462 9.24589 14.4659 8.28314 14.4785C7.32039 14.4912 6.36619 14.2965 5.48533 13.9078C4.60447 13.519 3.81757 12.9453 3.17807 12.2255C2.53856 11.5057 2.06142 10.6567 1.77905 9.73626C1.49667 8.81576 1.41568 7.84528 1.54155 6.89072C1.66743 5.93615 1.99723 5.01984 2.50857 4.20401C3.01991 3.38819 3.70082 2.69194 4.50505 2.16254C4.3633 3.42793 4.53523 4.70876 5.00567 5.89197C5.4761 7.07518 6.23057 8.1244 7.20249 8.947C8.18032 9.76262 9.34394 10.3249 10.5906 10.5842C11.8372 10.8435 13.1286 10.7919 14.3505 10.4338C14.0923 11.0336 13.7476 11.5923 13.3272 12.0921Z" fill="#333333"/>
</g>
<defs>
<clipPath id="clip0_1033_11832">
<rect width="16" height="16" fill="white"/>
</clipPath>
</defs>
</svg>
