<svg width="40" height="30" viewBox="0 0 40 30" fill="none" xmlns="http://www.w3.org/2000/svg">
<path d="M31.2546 29.5525H22.6727V20.8807H25.5088C26.228 20.8807 26.653 20.0634 26.228 19.4749L20.7111 11.8411C20.3596 11.3507 19.6322 11.3507 19.2808 11.8411L13.7638 19.4749C13.3388 20.0634 13.7556 20.8807 14.483 20.8807H17.3192V29.5525H7.7074C3.41643 29.3155 0 25.3024 0 20.9543C0 17.9547 1.62648 15.3392 4.0376 13.9252C3.81692 13.3286 3.70249 12.6911 3.70249 12.0209C3.70249 8.95589 6.17899 6.47938 9.24397 6.47938C9.90601 6.47938 10.5435 6.59381 11.1402 6.81449C12.9138 3.05478 16.7389 0.44751 21.1851 0.44751C26.9391 0.455683 31.6796 4.86108 32.219 10.4761C36.6408 11.2362 40 15.331 40 19.9653C40 24.9183 36.1422 29.2093 31.2546 29.5525Z" fill="#ABABAB"/>
</svg>
