<svg width="11" height="22" viewBox="0 0 11 22" fill="none" xmlns="http://www.w3.org/2000/svg">
<path d="M6.84837 0.267057C5.76837 0.465338 4.80558 1.01799 4.19023 1.79003C3.87628 2.18659 3.52046 2.89956 3.36977 3.43112C3.17302 4.12721 3.13953 4.5744 3.13953 6.51503V8.29956H1.56977H0L0 10.2191L0 12.1386H1.56977H3.13953L3.13953 16.9691L3.13953 21.7996H5.06512H6.9907L6.9907 16.9691L6.9907 12.1386L8.48512 12.1302L9.98372 12.1175L10.1972 10.3667C10.3186 9.40487 10.4233 8.54425 10.4358 8.45565L10.4567 8.29956L8.72372 8.29956H6.9907L6.9907 6.78925C6.9907 5.1355 7.02 4.88659 7.2293 4.49425C7.36326 4.24112 7.62698 4.0344 7.93256 3.93315C8.23395 3.8319 8.80744 3.78971 9.8707 3.7855H10.8V2.06003V0.334557L10.5614 0.309244C9.42279 0.186901 7.41767 0.161589 6.84837 0.267057Z" fill="white"/>
</svg>
