<svg width="18" height="18" viewBox="0 0 18 18" fill="none" xmlns="http://www.w3.org/2000/svg">
<path d="M8.14223 0.642561C7.02988 0.747562 5.78957 1.14459 4.79535 1.71881C2.84301 2.84428 1.3927 4.73756 0.838164 6.87694C0.631445 7.68412 0.598633 7.99256 0.598633 9.01959C0.598633 9.83334 0.605195 10.0072 0.667539 10.3649C0.975977 12.1368 1.71754 13.6035 2.94145 14.8733C4.19816 16.1793 5.78301 17.0062 7.63363 17.331C7.99129 17.3933 8.1652 17.3999 8.97895 17.3999C10.006 17.3999 10.3144 17.3671 11.1216 17.1604C14.0124 16.4122 16.3716 14.0563 17.1197 11.1622C17.333 10.3321 17.356 10.109 17.3691 8.69803L17.3855 7.41178H13.1822L8.97895 7.41178V9.01959V10.6274H11.4399C12.795 10.6274 13.9008 10.6307 13.9008 10.634C13.9008 10.6405 13.8713 10.716 13.8385 10.8079C13.5596 11.533 13.1593 12.1499 12.6179 12.6913C11.2004 14.099 9.11676 14.5649 7.23988 13.8922C5.79285 13.3738 4.62473 12.2057 4.10629 10.7587C3.89301 10.1647 3.81426 9.69553 3.81426 9.01959C3.81426 8.18944 3.94879 7.57256 4.29988 6.81459C4.77238 5.78428 5.74363 4.81303 6.77395 4.34053C8.10613 3.72694 9.52692 3.67772 10.8657 4.19944C11.2004 4.3274 11.663 4.57678 11.9321 4.77037C12.0141 4.82615 12.0961 4.88522 12.1191 4.89506C12.1552 4.91803 14.0977 2.43412 14.0977 2.36522C14.0977 2.34553 13.9599 2.23725 13.7958 2.11912C12.6343 1.3185 11.4268 0.855843 10.0125 0.672092C9.6516 0.622873 8.52942 0.606468 8.14223 0.642561Z" fill="white"/>
</svg>
