<svg width="16" height="16" viewBox="0 0 16 16" fill="none" xmlns="http://www.w3.org/2000/svg">
<path d="M15.8484 15.1295L11.7175 11.0646C12.7992 9.8893 13.4639 8.33495 13.4639 6.62455C13.4634 2.96568 10.4497 0 6.73182 0C3.01395 0 0.000244141 2.96568 0.000244141 6.62455C0.000244141 10.2834 3.01395 13.2491 6.73182 13.2491C8.3382 13.2491 9.81153 12.6935 10.9688 11.7697L15.1158 15.8507C15.3179 16.0498 15.6459 16.0498 15.848 15.8507C15.896 15.8038 15.9342 15.7477 15.9603 15.6858C15.9864 15.6239 15.9999 15.5574 15.9999 15.4902C16 15.423 15.9866 15.3565 15.9606 15.2946C15.9346 15.2326 15.8964 15.1765 15.8484 15.1295ZM6.73182 12.2299C3.58609 12.2299 1.03599 9.72029 1.03599 6.62455C1.03599 3.52881 3.58609 1.01923 6.73182 1.01923C9.87757 1.01923 12.4276 3.52881 12.4276 6.62455C12.4276 9.72029 9.87757 12.2299 6.73182 12.2299Z" fill="black"/>
</svg>
